PathFileType	4	(X/Y/Z)	C:/Users/opensim2020/Desktop/walking_exp_matlab/subject06_walking13_straight_03_cyclic.trc																																																																																																																																																				
DataRate	CameraRate	NumFrames	NumMarkers	Units	OrigDataRate	OrigDataStartFrame	OrigNumFrames																																																																																																																																																
100	100	7	50	mm	100	2208	111																																																																																																																																																
Frame#	Time	LFHD			RFHD			LBHD			RBHD			C7			T10			CLAV			STRN			RBAK			LSHO			LUPA			LELB			LFRM			LWRA			LWRB			LFIN			RSHO			RUPA			RELB			RFRM			RWRA			RWRB			RFIN			LASI			RASI			LPSI			RPSI			LTHI			LKNE			LTIB			LANK			LHEE			LTOE			RTHI			RKNE			RTIB			RANK			RHEE			RTOE			*39			*40			*41			*42			*43			*44			*45			*46			*47			*48			*49		
		X1	Y1	Z1	X2	Y2	Z2	X3	Y3	Z3	X4	Y4	Z4	X5	Y5	Z5	X6	Y6	Z6	X7	Y7	Z7	X8	Y8	Z8	X9	Y9	Z9	X10	Y10	Z10	X11	Y11	Z11	X12	Y12	Z12	X13	Y13	Z13	X14	Y14	Z14	X15	Y15	Z15	X16	Y16	Z16	X17	Y17	Z17	X18	Y18	Z18	X19	Y19	Z19	X20	Y20	Z20	X21	Y21	Z21	X22	Y22	Z22	X23	Y23	Z23	X24	Y24	Z24	X25	Y25	Z25	X26	Y26	Z26	X27	Y27	Z27	X28	Y28	Z28	X29	Y29	Z29	X30	Y30	Z30	X31	Y31	Z31	X32	Y32	Z32	X33	Y33	Z33	X34	Y34	Z34	X35	Y35	Z35	X36	Y36	Z36	X37	Y37	Z37	X38	Y38	Z38	X39	Y39	Z39	X40	Y40	Z40	X41	Y41	Z41	X42	Y42	Z42	X43	Y43	Z43	X44	Y44	Z44	X45	Y45	Z45	X46	Y46	Z46	X47	Y47	Z47	X48	Y48	Z48	X49	Y49	Z49	X50	Y50	Z50
																																																																																																																																																							
1	0	-464.26596	1645.66724	-1058.72278	-477.77267	1629.79919	-928.26202	-598.39972	1598.19287	-1074.89124	-610.42578	1587.36389	-946.38086	-612.44269	1437.63184	-1025.07227	-656.48792	1108.90503	-1020.39502	-504.09048	1356.4801	-1014.51025	-468.86411	1180.92163	-1023.97485	-696.16687	1267.42371	-956.59753	-545.61682	1393.57483	-1180.53931	-523.88403	1192.39233	-1249.17615	-508.21487	1080.82947	-1258.9873	-396.77682	989.53162	-1284.06677	-267.56705	974.66302	-1252.3158	-302.65042	916.98938	-1274.81689	-213.44156	903.42194	-1284.9718	-564.1604	1387.79077	-857.34857	-643.16113	1200.37793	-777.64923	-657.03021	1078.27295	-764.7522	-668.53229	958.3587	-745.95703	-639.46722	808.06647	-771.55072	-694.64746	823.1203	-735.20874	-677.56812	740.12537	-731.16516	-483.03891	943.41089	-1131.32275	-469.75784	959.18878	-910.33386	-639.2251	972.73901	-1095.44531	-624.59821	979.55054	-927.46362	-582.02161	631.29846	-1186.65308	-598.49835	466.28665	-1174.69397	-786.40405	289.43649	-1167.17041	-901.06708	160.29193	-1127.56042	-936.00146	176.64812	-1080.1012	-825.85596	33.62179	-1120.00732	-454.62164	634.68677	-847.13409	-414.23257	518.30438	-878.94592	-410.97012	249.93039	-881.04266	-397.87384	66.12267	-929.69885	-434.1138	42.88493	-976.07928	-244.18004	36.7515	-929.46802	-567.84924	1686.69482	-1008.30157	NaN	NaN	NaN	NaN	NaN	NaN	NaN	NaN	NaN	NaN	NaN	NaN	NaN	NaN	NaN	NaN	NaN	NaN	NaN	NaN	NaN	NaN	NaN	NaN	NaN	NaN	NaN	NaN	NaN	NaN
2	0.01	-454.60443	1647.72168	-1057.26416	-468.20764	1631.48999	-926.93335	-588.78961	1600.33423	-1073.69006	-600.95087	1589.12048	-945.16852	-602.4931	1439.32178	-1023.89185	-645.9422	1110.57336	-1019.22003	-494.03345	1358.53906	-1013.62109	-457.69302	1183.52881	-1022.77356	-685.69348	1269.05737	-955.13239	-536.25122	1395.57605	-1179.39026	-514.95825	1194.54492	-1248.07141	-500.89487	1082.7229	-1257.29761	-390.74738	989.45502	-1282.8291	-262.10883	971.50146	-1251.30237	-298.89886	913.93671	-1274.13586	-209.56174	899.40387	-1284.41748	-553.79132	1389.76917	-856.40997	-630.58569	1201.55701	-776.13043	-643.24866	1079.33325	-763.56573	-653.07703	959.25641	-744.87457	-622.17407	809.4043	-771.06805	-676.88501	823.84924	-734.3103	-659.0174	740.98547	-730.59753	-472.12292	945.48889	-1129.42383	-459.49011	961.13306	-908.42474	-628.44928	974.44861	-1094.37866	-613.76703	981.40948	-926.61053	-567.57965	632.03931	-1185.896	-580.81427	466.98605	-1174.99268	-772.04443	294.25406	-1167.56592	-887.94647	167.41377	-1128.23206	-921.4292	185.73003	-1080.14319	-821.71167	35.53078	-1120.76782	-446.89539	635.50977	-846.35071	-408.28607	518.32208	-878.17499	-408.3692	250.0708	-880.95007	-397.37015	66.32226	-929.97809	-434.0072	43.04242	-976.25439	-243.77733	36.15704	-929.86279	-558.26886	1688.63037	-1006.8313	NaN	NaN	NaN	NaN	NaN	NaN	NaN	NaN	NaN	NaN	NaN	NaN	NaN	NaN	NaN	NaN	NaN	NaN	NaN	NaN	NaN	NaN	NaN	NaN	NaN	NaN	NaN	NaN	NaN	NaN
3	0.02	-445.11203	1649.73035	-1055.92126	-458.86691	1633.20984	-925.55225	-579.20648	1602.35901	-1072.50549	-591.46362	1590.86255	-944.15131	-592.58752	1441.00098	-1022.74683	-635.58472	1112.28711	-1018.0011	-483.95041	1360.57471	-1012.68457	-447.63358	1185.28516	-1021.99756	-675.19287	1270.63879	-953.63049	-526.935	1397.57751	-1178.35938	-506.19751	1196.44226	-1246.90564	-493.69543	1084.39392	-1256.08997	-385.60007	988.65912	-1281.77063	-256.95706	967.93884	-1250.38953	-294.67813	912.15094	-1273.20947	-206.00259	894.88776	-1283.81458	-543.33118	1391.71118	-855.45221	-617.8996	1202.67822	-774.64355	-629.45624	1080.328	-762.25397	-637.47198	960.13806	-743.81281	-604.40149	810.78931	-770.58734	-659.07593	824.01147	-733.71753	-639.88794	741.65253	-730.02643	-461.58185	947.43024	-1127.64722	-449.42148	962.79968	-906.7843	-618.12744	975.99292	-1093.25732	-603.77936	983.33258	-925.29163	-553.26788	632.75122	-1185.06641	-563.1344	467.75815	-1175.08484	-755.84711	299.2973	-1166.79907	-874.36218	174.37068	-1128.83057	-906.58893	194.81558	-1080.98804	-815.19818	39.07072	-1120.01904	-439.88126	636.14948	-845.84705	-402.79169	518.53302	-877.25305	-406.27563	250.16946	-880.93103	-397.07648	66.39016	-930.26898	-434.01077	43.22818	-976.45349	-243.48914	35.74578	-930.1626	-548.82764	1690.51697	-1005.46008	NaN	NaN	NaN	NaN	NaN	NaN	NaN	NaN	NaN	NaN	NaN	NaN	NaN	NaN	NaN	NaN	NaN	NaN	NaN	NaN	NaN	NaN	NaN	NaN	NaN	NaN	NaN	NaN	NaN	NaN
4	0.03	-435.72815	1651.80408	-1054.58044	-449.63943	1635.0332	-924.25543	-569.68372	1604.27502	-1071.48083	-582.17902	1592.48792	-943.08502	-582.75513	1442.65027	-1021.63788	-625.44128	1114.02856	-1016.80139	-473.91556	1362.56433	-1011.90979	-436.86685	1187.58972	-1020.81219	-664.90839	1272.26843	-952.07263	-517.52008	1399.38904	-1177.54919	-497.91711	1198.26477	-1246.10205	-486.60495	1085.81592	-1254.88733	-380.51929	987.72083	-1280.71094	-252.2532	963.87695	-1249.48901	-291.09253	909.51801	-1272.69128	-202.9855	889.94025	-1283.29016	-532.90228	1393.57275	-854.52795	-605.06781	1203.69482	-773.0166	-615.54419	1081.25793	-760.8927	-621.66174	960.93402	-742.7251	-586.28705	812.23157	-770.11816	-641.44727	824.48438	-732.70282	-620.49902	742.44714	-729.31818	-451.52795	949.28516	-1126.19556	-439.33969	964.14172	-905.33752	-608.17645	977.39117	-1092.10486	-593.51721	985.13995	-924.19849	-539.14117	633.49023	-1184.22241	-545.40222	468.59616	-1174.91443	-739.51019	303.76016	-1168.00415	-859.97552	181.56262	-1129.02979	-891.05939	203.59149	-1081.37036	-806.53589	43.91217	-1120.60669	-433.26157	636.71606	-845.42548	-397.39008	518.70221	-876.72711	-404.56943	250.248	-881.06207	-396.87415	66.49986	-930.45331	-433.99469	43.31832	-976.5614	-243.17767	35.45143	-930.42438	-539.52734	1692.35217	-1004.16211	NaN	NaN	NaN	NaN	NaN	NaN	NaN	NaN	NaN	NaN	NaN	NaN	NaN	NaN	NaN	NaN	NaN	NaN	NaN	NaN	NaN	NaN	NaN	NaN	NaN	NaN	NaN	NaN	NaN	NaN
5	0.04	-426.25854	1654.09424	-1053.39734	-440.33429	1636.94604	-923.2171	-560.16571	1606.02197	-1070.56165	-572.74585	1594.01184	-942.21484	-572.91437	1444.41919	-1020.6015	-615.30164	1115.54565	-1015.55267	-463.94241	1364.46387	-1011.08337	-426.73737	1189.4707	-1019.90869	-654.69879	1273.87317	-950.51599	-508.18304	1401.12012	-1176.68604	-490.05817	1199.854	-1245.45093	-479.91345	1087.20801	-1254.03528	-375.55447	986.50134	-1279.8092	-247.96948	959.37329	-1248.67578	-288.11884	905.94562	-1272.65198	-200.45938	884.41943	-1282.7644	-522.42816	1395.41052	-853.57141	-592.44855	1204.72412	-771.63361	-601.60364	1082.13574	-759.49768	-605.70483	961.69641	-741.60187	-568.02441	813.72803	-769.56171	-623.13232	825.0509	-731.73511	-600.62286	743.31671	-728.80768	-441.80475	951.01575	-1124.98767	-429.45047	965.39197	-904.28607	-598.47638	978.68524	-1090.89355	-583.77057	986.94556	-922.85156	-525.01208	634.30988	-1183.41028	-527.53534	469.57816	-1174.50354	-721.04388	307.90433	-1164.46289	-845.16711	188.48428	-1128.74841	-875.40479	211.05869	-1080.755	-795.74561	49.03206	-1122.56909	-426.79318	637.23871	-844.48157	-392.04697	518.74664	-876.54224	-403.44064	250.347	-881.04688	-396.77039	66.57516	-930.54828	-433.99387	43.33781	-976.63824	-243.01369	35.28949	-930.54578	-530.36646	1694.1366	-1003.06384	NaN	NaN	NaN	NaN	NaN	NaN	NaN	NaN	NaN	NaN	NaN	NaN	NaN	NaN	NaN	NaN	NaN	NaN	NaN	NaN	NaN	NaN	NaN	NaN	NaN	NaN	NaN	NaN	NaN	NaN
6	0.05	-417.03848	1656.01794	-1052.32385	-431.17694	1638.85059	-922.06396	-550.71759	1607.70728	-1069.73352	-563.41309	1595.49109	-941.30994	-562.99457	1446.19043	-1019.57477	-605.53333	1117.31104	-1014.32648	-453.97623	1366.33362	-1010.39667	-416.79861	1191.21411	-1018.99664	-644.69348	1275.58142	-948.91217	-498.91434	1402.53467	-1175.93262	-482.58621	1201.10828	-1244.75391	-473.18555	1088.35339	-1253.18237	-371.07468	985.02625	-1279.08997	-244.04283	954.39709	-1247.86377	-285.63754	902.32037	-1272.47412	-198.44781	878.39642	-1282.28613	-512.02533	1397.17029	-852.60175	-579.73352	1205.72571	-770.26202	-587.46783	1083.00183	-758.11444	-589.58276	962.49988	-740.45673	-549.44702	815.40472	-769.15839	-604.44476	825.69983	-730.87103	-580.43445	744.43127	-728.10736	-432.49185	952.67853	-1124.11877	-419.64655	966.55707	-903.40131	-589.07062	979.94183	-1089.71045	-573.57617	988.54352	-921.86652	-510.81326	635.18695	-1182.69214	-509.63315	470.76382	-1173.93286	-703.45703	310.94379	-1164.15784	-830.11261	194.64479	-1127.84033	-859.92944	216.42538	-1078.96399	-781.60437	54.29414	-1125.68616	-420.6351	637.69989	-844.44177	-387.2175	518.83514	-875.88562	-402.78931	250.58713	-881.01428	-396.82541	66.66313	-930.55872	-434.05646	43.36925	-976.68225	-243.08249	35.12931	-930.66382	-521.23584	1695.76123	-1002.11444	NaN	NaN	NaN	NaN	NaN	NaN	NaN	NaN	NaN	NaN	NaN	NaN	NaN	NaN	NaN	NaN	NaN	NaN	NaN	NaN	NaN	NaN	NaN	NaN	NaN	NaN	NaN	NaN	NaN	NaN
7	0.06	-407.72781	1657.97522	-1051.35425	-422.01782	1640.71509	-921.10797	-541.17316	1609.14746	-1068.90759	-554.06781	1597.01819	-940.88611	-553.10394	1447.94006	-1018.56958	-595.76654	1118.9314	-1012.99237	-444.17145	1368.03088	-1009.58459	-407.08926	1192.88025	-1018.13702	-634.73236	1277.33191	-947.31116	-489.33002	1404.0968	-1175.10779	-475.43967	1202.20264	-1244.06506	-466.49261	1089.3457	-1252.45386	-366.79959	983.35626	-1278.4801	-240.55679	949.00128	-1247.12097	-283.75586	898.61505	-1272.22156	-197.10747	871.86182	-1281.79773	-501.55453	1398.88037	-851.62256	-566.97064	1206.67407	-768.77161	-573.36664	1083.89026	-756.76227	-573.23022	963.34686	-739.34955	-530.48389	817.21008	-768.62024	-585.10974	826.31415	-730.0069	-559.53961	745.54193	-727.4494	-423.13916	954.28937	-1123.43884	-409.95801	967.76385	-902.75372	-579.83258	981.24786	-1088.53931	-564.01263	990.12683	-920.65778	-496.61301	636.32367	-1182.08679	-491.70969	472.22308	-1173.25464	-685.93225	314.07092	-1163.6062	-814.1004	199.65364	-1126.63538	-843.83728	220.04131	-1077.1123	-763.68549	60.05867	-1127.74402	-414.06772	638.42139	-843.94696	-382.75974	518.98224	-874.94617	-401.80508	250.81686	-880.73108	-396.95175	66.70203	-930.52252	-434.21732	43.26415	-976.67114	-243.20909	35.13971	-930.86975	-512.14655	1697.36841	-1001.27112	NaN	NaN	NaN	NaN	NaN	NaN	NaN	NaN	NaN	NaN	NaN	NaN	NaN	NaN	NaN	NaN	NaN	NaN	NaN	NaN	NaN	NaN	NaN	NaN	NaN	NaN	NaN	NaN	NaN	NaN
